<mxfile host="65bd71144e">
    <diagram id="k-UywBxgBVDefyHeeaLq" name="Page-1">
        <mxGraphModel dx="830" dy="539" grid="1" gridSize="10" guides="1" tooltips="1" connect="1" arrows="1" fold="1" page="1" pageScale="1" pageWidth="1200" pageHeight="1600" math="0" shadow="0">
            <root>
                <mxCell id="0"/>
                <mxCell id="1" parent="0"/>
                <mxCell id="24" value="" style="html=1;shadow=0;dashed=0;shape=mxgraph.bootstrap.rrect;rSize=5;strokeColor=none;strokeWidth=1;fontColor=#FFFFFF;whiteSpace=wrap;align=center;verticalAlign=middle;spacingLeft=0;fontStyle=0;fontSize=16;spacing=5;fillColor=#11626E;" parent="1" vertex="1">
                    <mxGeometry width="1200" height="560" as="geometry"/>
                </mxCell>
                <mxCell id="13" value="" style="html=1;shadow=0;dashed=0;shape=mxgraph.bootstrap.rrect;rSize=5;strokeColor=none;strokeWidth=1;fillColor=#343A40;fontColor=#ffffff;whiteSpace=wrap;align=center;verticalAlign=middle;spacingLeft=0;fontStyle=0;fontSize=16;spacing=5;" parent="1" vertex="1">
                    <mxGeometry x="40" width="160" height="560" as="geometry"/>
                </mxCell>
                <mxCell id="9" value="&lt;font style=&quot;font-size: 20px&quot;&gt;Q&lt;/font&gt;" style="html=1;shadow=0;dashed=0;shape=mxgraph.bootstrap.rrect;rSize=5;strokeColor=none;strokeWidth=1;fontColor=#FFFFFF;whiteSpace=wrap;align=center;verticalAlign=middle;spacingLeft=0;fontStyle=0;fontSize=16;spacing=5;fillColor=#1CA5B8;" parent="1" vertex="1">
                    <mxGeometry width="40" height="40" as="geometry"/>
                </mxCell>
                <mxCell id="15" value="User" style="ellipse;whiteSpace=wrap;html=1;aspect=fixed;fillColor=#0050ef;strokeColor=#001DBC;fontColor=#ffffff;" parent="1" vertex="1">
                    <mxGeometry y="40" width="40" height="40" as="geometry"/>
                </mxCell>
                <mxCell id="16" value="Pl1" style="ellipse;whiteSpace=wrap;html=1;aspect=fixed;fillColor=#6a00ff;strokeColor=#3700CC;fontColor=#ffffff;" parent="1" vertex="1">
                    <mxGeometry y="100" width="40" height="40" as="geometry"/>
                </mxCell>
                <mxCell id="17" value="Pl2" style="ellipse;whiteSpace=wrap;html=1;aspect=fixed;fillColor=#008a00;strokeColor=#005700;fontColor=#ffffff;" parent="1" vertex="1">
                    <mxGeometry y="140" width="40" height="40" as="geometry"/>
                </mxCell>
                <mxCell id="18" value="Pl3" style="ellipse;whiteSpace=wrap;html=1;aspect=fixed;fillColor=#a20025;strokeColor=#6F0000;fontColor=#ffffff;" parent="1" vertex="1">
                    <mxGeometry y="180" width="40" height="40" as="geometry"/>
                </mxCell>
                <mxCell id="23" value="&lt;font style=&quot;font-size: 10px;&quot;&gt;1&lt;/font&gt;" style="rounded=1;whiteSpace=wrap;html=1;arcSize=50;strokeColor=none;strokeWidth=1;fillColor=#1CA5B8;fontColor=#ffffff;whiteSpace=wrap;align=left;verticalAlign=middle;spacingLeft=0;fontStyle=1;fontSize=10;spacing=2;" parent="1" vertex="1">
                    <mxGeometry x="30" y="70" width="10" height="10" as="geometry"/>
                </mxCell>
                <mxCell id="26" value="" style="html=1;shadow=0;dashed=0;shape=mxgraph.bootstrap.rrect;rSize=5;strokeColor=none;strokeWidth=1;fillColor=#343A40;fontColor=#ffffff;whiteSpace=wrap;align=center;verticalAlign=middle;spacingLeft=0;fontStyle=0;fontSize=16;spacing=5;" parent="1" vertex="1">
                    <mxGeometry x="1000" width="200" height="560" as="geometry"/>
                </mxCell>
                <mxCell id="27" value="Plaza1" style="html=1;shadow=0;dashed=0;shape=mxgraph.bootstrap.rrect;rSize=5;strokeColor=none;strokeWidth=1;fillColor=#6C767D;fontColor=#FFFFFF;whiteSpace=wrap;align=left;verticalAlign=middle;spacingLeft=0;fontStyle=0;fontSize=16;spacing=5;" parent="1" vertex="1">
                    <mxGeometry x="40" width="160" height="40" as="geometry"/>
                </mxCell>
                <mxCell id="29" value="#new-canal" style="text;html=1;align=left;verticalAlign=middle;resizable=0;points=[];autosize=1;strokeColor=none;fontColor=#F0F0F0;fontSize=16;" parent="1" vertex="1">
                    <mxGeometry x="50" y="95" width="100" height="20" as="geometry"/>
                </mxCell>
                <mxCell id="31" value="" style="endArrow=none;html=1;rounded=0;endSize=6;strokeWidth=3;strokeColor=#FFFFFF;" edge="1" parent="1">
                    <mxGeometry width="50" height="50" relative="1" as="geometry">
                        <mxPoint x="170" y="15" as="sourcePoint"/>
                        <mxPoint x="190" y="15" as="targetPoint"/>
                        <Array as="points">
                            <mxPoint x="180" y="25"/>
                            <mxPoint x="190" y="15"/>
                        </Array>
                    </mxGeometry>
                </mxCell>
                <mxCell id="35" value="#grouped-canal" style="text;html=1;align=left;verticalAlign=middle;resizable=0;points=[];autosize=1;strokeColor=none;fontColor=#F0F0F0;fontSize=16;" vertex="1" parent="1">
                    <mxGeometry x="50" y="155" width="130" height="20" as="geometry"/>
                </mxCell>
                <mxCell id="36" value="#canal-2" style="text;html=1;align=left;verticalAlign=middle;resizable=0;points=[];autosize=1;strokeColor=none;fontColor=#F0F0F0;fontSize=16;" vertex="1" parent="1">
                    <mxGeometry x="50" y="115" width="80" height="20" as="geometry"/>
                </mxCell>
                <mxCell id="37" value="Canal Group" style="text;html=1;align=left;verticalAlign=middle;resizable=0;points=[];autosize=1;strokeColor=none;fontColor=#F0F0F0;textOpacity=80;" vertex="1" parent="1">
                    <mxGeometry x="60" y="135" width="80" height="20" as="geometry"/>
                </mxCell>
                <mxCell id="41" value="" style="endArrow=none;html=1;rounded=0;endSize=6;strokeWidth=2;opacity=80;strokeColor=#FFFFFF;" edge="1" parent="1">
                    <mxGeometry width="50" height="50" relative="1" as="geometry">
                        <mxPoint x="50" y="142.5" as="sourcePoint"/>
                        <mxPoint x="60" y="142.5" as="targetPoint"/>
                        <Array as="points">
                            <mxPoint x="55" y="147.5"/>
                        </Array>
                    </mxGeometry>
                </mxCell>
                <mxCell id="43" value="" style="html=1;shadow=0;dashed=0;shape=mxgraph.bootstrap.rrect;rSize=5;strokeColor=none;strokeWidth=1;fontColor=#FFFFFF;whiteSpace=wrap;align=center;verticalAlign=middle;spacingLeft=0;fontStyle=0;fontSize=16;spacing=5;fillColor=#0C3C4D;" vertex="1" parent="1">
                    <mxGeometry x="200" width="800" height="560" as="geometry"/>
                </mxCell>
                <mxCell id="10" value="#new-canal" style="html=1;shadow=0;dashed=0;shape=mxgraph.bootstrap.rrect;rSize=5;strokeColor=none;strokeWidth=1;fillColor=#6C767D;fontColor=#FFFFFF;whiteSpace=wrap;align=left;verticalAlign=middle;spacingLeft=0;fontStyle=0;fontSize=16;spacing=5;" parent="1" vertex="1">
                    <mxGeometry x="200" width="800" height="40" as="geometry"/>
                </mxCell>
                <mxCell id="11" value="Canal Description" style="text;html=1;align=center;verticalAlign=middle;resizable=0;points=[];autosize=1;strokeColor=none;fontColor=#F0F0F0;textOpacity=80;" parent="1" vertex="1">
                    <mxGeometry x="360" y="10" width="110" height="20" as="geometry"/>
                </mxCell>
                <mxCell id="44" value="Type something..." style="html=1;shadow=0;dashed=0;shape=mxgraph.bootstrap.rrect;rSize=5;strokeColor=none;strokeWidth=1;fontColor=#FFFFFF;whiteSpace=wrap;align=left;verticalAlign=middle;spacingLeft=10;fontStyle=0;fontSize=14;spacing=5;fillColor=#174563;textOpacity=60;" vertex="1" parent="1">
                    <mxGeometry x="200" y="500" width="760" height="40" as="geometry"/>
                </mxCell>
                <mxCell id="45" value="People are typing..." style="text;html=1;align=left;verticalAlign=middle;resizable=0;points=[];autosize=1;strokeColor=none;fontColor=#F0F0F0;textOpacity=80;" vertex="1" parent="1">
                    <mxGeometry x="220" y="540" width="120" height="20" as="geometry"/>
                </mxCell>
                <mxCell id="46" value="" style="html=1;shadow=0;dashed=0;shape=mxgraph.basic.arc;startAngle=0.25;endAngle=1;strokeWidth=2;strokeColor=#1CA5B8;fontSize=16;fillColor=#174563;align=left;" vertex="1" parent="1">
                    <mxGeometry x="210" y="545" width="10" height="10" as="geometry"/>
                </mxCell>
                <mxCell id="47" value="" style="rounded=1;whiteSpace=wrap;html=1;fontSize=16;strokeWidth=2;align=left;opacity=50;fillColor=none;strokeColor=#FFFFFF;" vertex="1" parent="1">
                    <mxGeometry x="50" y="95" width="90" height="20" as="geometry"/>
                </mxCell>
                <mxCell id="49" value="" style="edgeStyle=none;rounded=0;sketch=0;html=1;shadow=0;fontSize=16;endSize=6;strokeWidth=3;opacity=80;" edge="1" parent="1" source="48" target="44">
                    <mxGeometry relative="1" as="geometry"/>
                </mxCell>
                <mxCell id="48" value="" style="html=1;shadow=0;dashed=0;shape=mxgraph.bootstrap.rrect;rSize=5;strokeColor=none;strokeWidth=1;fontColor=#FFFFFF;whiteSpace=wrap;align=center;verticalAlign=middle;spacingLeft=0;fontStyle=0;fontSize=16;spacing=5;fillColor=#103045;" vertex="1" parent="1">
                    <mxGeometry x="960" y="500" width="40" height="40" as="geometry"/>
                </mxCell>
                <mxCell id="50" value="" style="ellipse;whiteSpace=wrap;html=1;aspect=fixed;fontSize=16;strokeWidth=2;align=left;opacity=60;strokeColor=none;fillColor=#FFFFFF;" vertex="1" parent="1">
                    <mxGeometry x="962" y="515" width="10" height="10" as="geometry"/>
                </mxCell>
                <mxCell id="51" value="" style="ellipse;whiteSpace=wrap;html=1;aspect=fixed;fontSize=16;strokeWidth=2;align=left;opacity=60;strokeColor=none;fillColor=#FFFFFF;" vertex="1" parent="1">
                    <mxGeometry x="975" y="515" width="10" height="10" as="geometry"/>
                </mxCell>
                <mxCell id="52" value="" style="ellipse;whiteSpace=wrap;html=1;aspect=fixed;fontSize=16;strokeWidth=2;align=left;opacity=60;strokeColor=none;fillColor=#FFFFFF;" vertex="1" parent="1">
                    <mxGeometry x="988" y="515" width="10" height="10" as="geometry"/>
                </mxCell>
                <mxCell id="53" value="" style="html=1;shadow=0;dashed=0;shape=mxgraph.bootstrap.rrect;rSize=5;strokeColor=none;strokeWidth=1;fontColor=#FFFFFF;whiteSpace=wrap;align=center;verticalAlign=middle;spacingLeft=0;fontStyle=0;fontSize=16;spacing=5;fillColor=#103045;" vertex="1" parent="1">
                    <mxGeometry x="770" y="280" width="230" height="220" as="geometry"/>
                </mxCell>
                <mxCell id="55" value="Emoji" style="text;html=1;align=center;verticalAlign=middle;resizable=0;points=[];autosize=1;strokeColor=none;fontColor=#F0F0F0;textOpacity=80;fontSize=8;" vertex="1" parent="1">
                    <mxGeometry x="770" y="280" width="40" height="20" as="geometry"/>
                </mxCell>
                <mxCell id="56" value="GIFs" style="text;html=1;align=center;verticalAlign=middle;resizable=0;points=[];autosize=1;strokeColor=none;fontColor=#F0F0F0;textOpacity=80;fontSize=8;" vertex="1" parent="1">
                    <mxGeometry x="805" y="280" width="30" height="20" as="geometry"/>
                </mxCell>
                <mxCell id="57" value="File Upload" style="text;html=1;align=center;verticalAlign=middle;resizable=0;points=[];autosize=1;strokeColor=none;fontColor=#F0F0F0;textOpacity=80;fontSize=8;" vertex="1" parent="1">
                    <mxGeometry x="830" y="280" width="60" height="20" as="geometry"/>
                </mxCell>
                <mxCell id="58" value="User" style="ellipse;whiteSpace=wrap;html=1;aspect=fixed;fillColor=#0050ef;strokeColor=#001DBC;fontColor=#ffffff;" vertex="1" parent="1">
                    <mxGeometry x="1010" y="55" width="40" height="40" as="geometry"/>
                </mxCell>
                <mxCell id="61" value="User1" style="text;html=1;align=left;verticalAlign=middle;resizable=0;points=[];autosize=1;strokeColor=none;fontColor=#F0F0F0;fontSize=16;" vertex="1" parent="1">
                    <mxGeometry x="1060" y="65" width="60" height="20" as="geometry"/>
                </mxCell>
                <mxCell id="62" value="User" style="ellipse;whiteSpace=wrap;html=1;aspect=fixed;fillColor=#0050ef;strokeColor=#001DBC;fontColor=#ffffff;" vertex="1" parent="1">
                    <mxGeometry x="210" y="450" width="40" height="40" as="geometry"/>
                </mxCell>
                <mxCell id="63" value="User1" style="text;html=1;align=left;verticalAlign=middle;resizable=0;points=[];autosize=1;strokeColor=none;fontColor=#F0F0F0;fontSize=16;" vertex="1" parent="1">
                    <mxGeometry x="260" y="450" width="60" height="20" as="geometry"/>
                </mxCell>
                <mxCell id="64" value="Today, 8:35 AM" style="text;html=1;align=left;verticalAlign=middle;resizable=0;points=[];autosize=1;strokeColor=none;fontColor=#F0F0F0;textOpacity=80;" vertex="1" parent="1">
                    <mxGeometry x="310" y="450" width="100" height="20" as="geometry"/>
                </mxCell>
                <mxCell id="65" value="Message content" style="text;html=1;align=left;verticalAlign=middle;resizable=0;points=[];autosize=1;strokeColor=none;fontColor=#F0F0F0;fontSize=14;" vertex="1" parent="1">
                    <mxGeometry x="260" y="470" width="120" height="20" as="geometry"/>
                </mxCell>
                <mxCell id="67" value="(Toggle)" style="text;html=1;align=center;verticalAlign=middle;resizable=0;points=[];autosize=1;strokeColor=none;fontColor=#F0F0F0;fontSize=16;" vertex="1" parent="1">
                    <mxGeometry x="1010" y="10" width="70" height="20" as="geometry"/>
                </mxCell>
                <mxCell id="68" value="(Pins)" style="text;html=1;align=center;verticalAlign=middle;resizable=0;points=[];autosize=1;strokeColor=none;fontColor=#F0F0F0;fontSize=16;" vertex="1" parent="1">
                    <mxGeometry x="940" y="10" width="60" height="20" as="geometry"/>
                </mxCell>
                <mxCell id="69" value="" style="html=1;shadow=0;dashed=0;shape=mxgraph.bootstrap.rrect;rSize=5;strokeColor=none;strokeWidth=1;fontColor=#FFFFFF;whiteSpace=wrap;align=center;verticalAlign=middle;spacingLeft=0;fontStyle=0;fontSize=16;spacing=5;fillColor=#11626E;" vertex="1" parent="1">
                    <mxGeometry y="600" width="1200" height="560" as="geometry"/>
                </mxCell>
                <mxCell id="70" value="" style="html=1;shadow=0;dashed=0;shape=mxgraph.bootstrap.rrect;rSize=5;strokeColor=none;strokeWidth=1;fillColor=#343A40;fontColor=#ffffff;whiteSpace=wrap;align=center;verticalAlign=middle;spacingLeft=0;fontStyle=0;fontSize=16;spacing=5;" vertex="1" parent="1">
                    <mxGeometry x="40" y="600" width="160" height="560" as="geometry"/>
                </mxCell>
                <mxCell id="71" value="&lt;font style=&quot;font-size: 20px&quot;&gt;Q&lt;/font&gt;" style="html=1;shadow=0;dashed=0;shape=mxgraph.bootstrap.rrect;rSize=5;strokeColor=none;strokeWidth=1;fontColor=#FFFFFF;whiteSpace=wrap;align=left;verticalAlign=middle;spacingLeft=8;fontStyle=0;fontSize=16;spacing=5;fillColor=#1CA5B8;" vertex="1" parent="1">
                    <mxGeometry y="600" width="200" height="40" as="geometry"/>
                </mxCell>
                <mxCell id="73" value="Pl1" style="ellipse;whiteSpace=wrap;html=1;aspect=fixed;fillColor=#6a00ff;strokeColor=#3700CC;fontColor=#ffffff;" vertex="1" parent="1">
                    <mxGeometry y="640" width="40" height="40" as="geometry"/>
                </mxCell>
                <mxCell id="74" value="Pl2" style="ellipse;whiteSpace=wrap;html=1;aspect=fixed;fillColor=#008a00;strokeColor=#005700;fontColor=#ffffff;" vertex="1" parent="1">
                    <mxGeometry y="680" width="40" height="40" as="geometry"/>
                </mxCell>
                <mxCell id="75" value="Pl3" style="ellipse;whiteSpace=wrap;html=1;aspect=fixed;fillColor=#a20025;strokeColor=#6F0000;fontColor=#ffffff;" vertex="1" parent="1">
                    <mxGeometry y="720" width="40" height="40" as="geometry"/>
                </mxCell>
                <mxCell id="85" value="" style="html=1;shadow=0;dashed=0;shape=mxgraph.bootstrap.rrect;rSize=5;strokeColor=none;strokeWidth=1;fontColor=#FFFFFF;whiteSpace=wrap;align=center;verticalAlign=middle;spacingLeft=0;fontStyle=0;fontSize=16;spacing=5;fillColor=#0C3C4D;" vertex="1" parent="1">
                    <mxGeometry x="200" y="600" width="1000" height="560" as="geometry"/>
                </mxCell>
                <mxCell id="86" value="Feed" style="html=1;shadow=0;dashed=0;shape=mxgraph.bootstrap.rrect;rSize=5;strokeColor=none;strokeWidth=1;fillColor=#6C767D;fontColor=#FFFFFF;whiteSpace=wrap;align=left;verticalAlign=middle;spacingLeft=0;fontStyle=0;fontSize=16;spacing=5;" vertex="1" parent="1">
                    <mxGeometry x="200" y="600" width="1000" height="40" as="geometry"/>
                </mxCell>
                <mxCell id="109" value="Settings" style="text;html=1;align=left;verticalAlign=middle;resizable=0;points=[];autosize=1;strokeColor=none;fontColor=#F0F0F0;fontSize=16;" vertex="1" parent="1">
                    <mxGeometry x="50" y="650" width="70" height="20" as="geometry"/>
                </mxCell>
                <mxCell id="110" value="User1" style="text;html=1;align=left;verticalAlign=middle;resizable=0;points=[];autosize=1;strokeColor=none;fontColor=#F0F0F0;fontSize=16;" vertex="1" parent="1">
                    <mxGeometry x="100" y="750.29" width="60" height="20" as="geometry"/>
                </mxCell>
                <mxCell id="111" value="User" style="ellipse;whiteSpace=wrap;html=1;aspect=fixed;fillColor=#0050ef;strokeColor=#001DBC;fontColor=#ffffff;" vertex="1" parent="1">
                    <mxGeometry x="50" y="740.29" width="40" height="40" as="geometry"/>
                </mxCell>
                <mxCell id="113" value="" style="endArrow=none;html=1;shadow=0;fontSize=14;fontColor=#f0f0f0;endSize=6;strokeWidth=3;opacity=50;strokeColor=#FFFFFF;" edge="1" parent="1">
                    <mxGeometry width="50" height="50" relative="1" as="geometry">
                        <mxPoint x="50" y="730" as="sourcePoint"/>
                        <mxPoint x="190" y="730" as="targetPoint"/>
                    </mxGeometry>
                </mxCell>
                <mxCell id="114" value="Friends" style="text;html=1;align=left;verticalAlign=middle;resizable=0;points=[];autosize=1;strokeColor=none;fontColor=#F0F0F0;fontSize=16;" vertex="1" parent="1">
                    <mxGeometry x="50" y="670" width="70" height="20" as="geometry"/>
                </mxCell>
                <mxCell id="116" value="" style="rounded=1;whiteSpace=wrap;html=1;fontSize=16;strokeWidth=2;align=left;opacity=50;fillColor=none;strokeColor=#FFFFFF;" vertex="1" parent="1">
                    <mxGeometry x="50" y="690" width="40" height="20" as="geometry"/>
                </mxCell>
                <mxCell id="117" value="Feed" style="text;html=1;align=left;verticalAlign=middle;resizable=0;points=[];autosize=1;strokeColor=none;fontColor=#F0F0F0;fontSize=16;" vertex="1" parent="1">
                    <mxGeometry x="50" y="690" width="50" height="20" as="geometry"/>
                </mxCell>
                <mxCell id="118" value="Posts" style="text;html=1;align=left;verticalAlign=middle;resizable=0;points=[];autosize=1;strokeColor=none;fontColor=#F0F0F0;fontSize=16;" vertex="1" parent="1">
                    <mxGeometry x="50" y="50" width="60" height="20" as="geometry"/>
                </mxCell>
                <mxCell id="119" value="" style="endArrow=none;html=1;shadow=0;fontSize=14;fontColor=#f0f0f0;endSize=6;strokeWidth=3;opacity=50;strokeColor=#FFFFFF;" edge="1" parent="1">
                    <mxGeometry width="50" height="50" relative="1" as="geometry">
                        <mxPoint x="50" y="80" as="sourcePoint"/>
                        <mxPoint x="190" y="80" as="targetPoint"/>
                    </mxGeometry>
                </mxCell>
                <mxCell id="120" value="Plaza1" style="text;html=1;align=left;verticalAlign=middle;resizable=0;points=[];autosize=1;strokeColor=none;fontColor=#F0F0F0;fontSize=24;" vertex="1" parent="1">
                    <mxGeometry x="210" y="650" width="90" height="30" as="geometry"/>
                </mxCell>
                <mxCell id="121" value="" style="html=1;shadow=0;dashed=0;shape=mxgraph.bootstrap.rrect;rSize=5;strokeColor=none;strokeWidth=1;fillColor=#343A40;fontColor=#ffffff;whiteSpace=wrap;align=center;verticalAlign=middle;spacingLeft=0;fontStyle=0;fontSize=16;spacing=5;" vertex="1" parent="1">
                    <mxGeometry x="220" y="690" width="200" height="310" as="geometry"/>
                </mxCell>
                <mxCell id="123" value="" style="html=1;shadow=0;dashed=0;shape=mxgraph.bootstrap.rrect;rSize=5;strokeColor=none;strokeWidth=1;fillColor=#343A40;fontColor=#ffffff;whiteSpace=wrap;align=center;verticalAlign=middle;spacingLeft=0;fontStyle=0;fontSize=16;spacing=5;" vertex="1" parent="1">
                    <mxGeometry x="440" y="640" width="30" height="520" as="geometry"/>
                </mxCell>
                <mxCell id="124" value="" style="html=1;shadow=0;dashed=0;shape=mxgraph.bootstrap.rrect;rSize=5;strokeColor=none;strokeWidth=1;fillColor=#6C767D;fontColor=#FFFFFF;whiteSpace=wrap;align=left;verticalAlign=middle;spacingLeft=0;fontStyle=0;fontSize=16;spacing=5;" vertex="1" parent="1">
                    <mxGeometry x="445" y="650" width="20" height="280" as="geometry"/>
                </mxCell>
                <mxCell id="125" value="" style="html=1;shadow=0;dashed=0;shape=mxgraph.bootstrap.rrect;rSize=5;strokeColor=none;strokeWidth=1;fillColor=#343A40;fontColor=#ffffff;whiteSpace=wrap;align=center;verticalAlign=middle;spacingLeft=0;fontStyle=0;fontSize=16;spacing=5;" vertex="1" parent="1">
                    <mxGeometry x="220" y="1030" width="200" height="130" as="geometry"/>
                </mxCell>
                <mxCell id="126" value="Image" style="rounded=1;whiteSpace=wrap;html=1;fontSize=24;fontColor=#f0f0f0;strokeWidth=2;fillColor=#1CA5B8;align=center;" vertex="1" parent="1">
                    <mxGeometry x="230" y="700" width="180" height="100" as="geometry"/>
                </mxCell>
                <mxCell id="127" value="&lt;h1 style=&quot;font-size: 12px&quot;&gt;&lt;span style=&quot;font-weight: normal&quot;&gt;Lorem ipsum dolor sit amet, consectetur adipisicing elit, sed do eiusmod tempor incididunt ut labore et dolore magna aliqua.&lt;/span&gt;&lt;br&gt;&lt;/h1&gt;" style="text;html=1;strokeColor=none;fillColor=none;spacing=5;spacingTop=-20;whiteSpace=wrap;overflow=hidden;rounded=0;fontSize=24;fontColor=#f0f0f0;align=left;horizontal=1;verticalAlign=top;" vertex="1" parent="1">
                    <mxGeometry x="227.5" y="840" width="185" height="60" as="geometry"/>
                </mxCell>
                <mxCell id="128" value="Post1" style="text;html=1;align=left;verticalAlign=middle;resizable=0;points=[];autosize=1;strokeColor=none;fontColor=#F0F0F0;fontSize=16;" vertex="1" parent="1">
                    <mxGeometry x="230" y="810" width="60" height="20" as="geometry"/>
                </mxCell>
                <mxCell id="129" value="Image2" style="rounded=1;whiteSpace=wrap;html=1;fontSize=24;fontColor=#f0f0f0;strokeWidth=2;fillColor=#1CA5B8;align=center;" vertex="1" parent="1">
                    <mxGeometry x="230" y="1040" width="180" height="100" as="geometry"/>
                </mxCell>
                <mxCell id="130" value="Friends" style="text;html=1;align=left;verticalAlign=middle;resizable=0;points=[];autosize=1;strokeColor=none;fontColor=#F0F0F0;fontSize=24;" vertex="1" parent="1">
                    <mxGeometry x="480" y="650" width="100" height="30" as="geometry"/>
                </mxCell>
                <mxCell id="131" value="" style="html=1;shadow=0;dashed=0;shape=mxgraph.bootstrap.rrect;rSize=5;strokeColor=none;strokeWidth=1;fillColor=#343A40;fontColor=#ffffff;whiteSpace=wrap;align=center;verticalAlign=middle;spacingLeft=0;fontStyle=0;fontSize=16;spacing=5;" vertex="1" parent="1">
                    <mxGeometry x="490" y="690" width="200" height="310" as="geometry"/>
                </mxCell>
                <mxCell id="132" value="" style="html=1;shadow=0;dashed=0;shape=mxgraph.bootstrap.rrect;rSize=5;strokeColor=none;strokeWidth=1;fillColor=#343A40;fontColor=#ffffff;whiteSpace=wrap;align=center;verticalAlign=middle;spacingLeft=0;fontStyle=0;fontSize=16;spacing=5;" vertex="1" parent="1">
                    <mxGeometry x="710" y="640" width="30" height="520" as="geometry"/>
                </mxCell>
                <mxCell id="133" value="" style="html=1;shadow=0;dashed=0;shape=mxgraph.bootstrap.rrect;rSize=5;strokeColor=none;strokeWidth=1;fillColor=#6C767D;fontColor=#FFFFFF;whiteSpace=wrap;align=left;verticalAlign=middle;spacingLeft=0;fontStyle=0;fontSize=16;spacing=5;" vertex="1" parent="1">
                    <mxGeometry x="715" y="650" width="20" height="280" as="geometry"/>
                </mxCell>
                <mxCell id="134" value="" style="html=1;shadow=0;dashed=0;shape=mxgraph.bootstrap.rrect;rSize=5;strokeColor=none;strokeWidth=1;fillColor=#343A40;fontColor=#ffffff;whiteSpace=wrap;align=center;verticalAlign=middle;spacingLeft=0;fontStyle=0;fontSize=16;spacing=5;" vertex="1" parent="1">
                    <mxGeometry x="490" y="1030" width="200" height="130" as="geometry"/>
                </mxCell>
                <mxCell id="135" value="Image" style="rounded=1;whiteSpace=wrap;html=1;fontSize=24;fontColor=#f0f0f0;strokeWidth=2;fillColor=#1CA5B8;align=center;" vertex="1" parent="1">
                    <mxGeometry x="500" y="700" width="180" height="100" as="geometry"/>
                </mxCell>
                <mxCell id="136" value="&lt;h1 style=&quot;font-size: 12px&quot;&gt;&lt;span style=&quot;font-weight: normal&quot;&gt;Lorem ipsum dolor sit amet, consectetur adipisicing elit, sed do eiusmod tempor incididunt ut labore et dolore magna aliqua.&lt;/span&gt;&lt;br&gt;&lt;/h1&gt;" style="text;html=1;strokeColor=none;fillColor=none;spacing=5;spacingTop=-20;whiteSpace=wrap;overflow=hidden;rounded=0;fontSize=24;fontColor=#f0f0f0;align=left;horizontal=1;verticalAlign=top;" vertex="1" parent="1">
                    <mxGeometry x="497.5" y="840" width="185" height="60" as="geometry"/>
                </mxCell>
                <mxCell id="137" value="Post1" style="text;html=1;align=left;verticalAlign=middle;resizable=0;points=[];autosize=1;strokeColor=none;fontColor=#F0F0F0;fontSize=16;" vertex="1" parent="1">
                    <mxGeometry x="500" y="810" width="60" height="20" as="geometry"/>
                </mxCell>
                <mxCell id="138" value="Image2" style="rounded=1;whiteSpace=wrap;html=1;fontSize=24;fontColor=#f0f0f0;strokeWidth=2;fillColor=#1CA5B8;align=center;" vertex="1" parent="1">
                    <mxGeometry x="500" y="1040" width="180" height="100" as="geometry"/>
                </mxCell>
                <mxCell id="139" value="Discover" style="text;html=1;align=left;verticalAlign=middle;resizable=0;points=[];autosize=1;strokeColor=none;fontColor=#F0F0F0;fontSize=24;" vertex="1" parent="1">
                    <mxGeometry x="755" y="650" width="110" height="30" as="geometry"/>
                </mxCell>
                <mxCell id="140" value="" style="html=1;shadow=0;dashed=0;shape=mxgraph.bootstrap.rrect;rSize=5;strokeColor=none;strokeWidth=1;fillColor=#343A40;fontColor=#ffffff;whiteSpace=wrap;align=center;verticalAlign=middle;spacingLeft=0;fontStyle=0;fontSize=16;spacing=5;" vertex="1" parent="1">
                    <mxGeometry x="765" y="690" width="200" height="310" as="geometry"/>
                </mxCell>
                <mxCell id="141" value="" style="html=1;shadow=0;dashed=0;shape=mxgraph.bootstrap.rrect;rSize=5;strokeColor=none;strokeWidth=1;fillColor=#343A40;fontColor=#ffffff;whiteSpace=wrap;align=center;verticalAlign=middle;spacingLeft=0;fontStyle=0;fontSize=16;spacing=5;" vertex="1" parent="1">
                    <mxGeometry x="985" y="640" width="30" height="520" as="geometry"/>
                </mxCell>
                <mxCell id="142" value="" style="html=1;shadow=0;dashed=0;shape=mxgraph.bootstrap.rrect;rSize=5;strokeColor=none;strokeWidth=1;fillColor=#6C767D;fontColor=#FFFFFF;whiteSpace=wrap;align=left;verticalAlign=middle;spacingLeft=0;fontStyle=0;fontSize=16;spacing=5;" vertex="1" parent="1">
                    <mxGeometry x="990" y="650" width="20" height="280" as="geometry"/>
                </mxCell>
                <mxCell id="143" value="" style="html=1;shadow=0;dashed=0;shape=mxgraph.bootstrap.rrect;rSize=5;strokeColor=none;strokeWidth=1;fillColor=#343A40;fontColor=#ffffff;whiteSpace=wrap;align=center;verticalAlign=middle;spacingLeft=0;fontStyle=0;fontSize=16;spacing=5;" vertex="1" parent="1">
                    <mxGeometry x="765" y="1030" width="200" height="130" as="geometry"/>
                </mxCell>
                <mxCell id="144" value="Image" style="rounded=1;whiteSpace=wrap;html=1;fontSize=24;fontColor=#f0f0f0;strokeWidth=2;fillColor=#1CA5B8;align=center;" vertex="1" parent="1">
                    <mxGeometry x="775" y="700" width="180" height="100" as="geometry"/>
                </mxCell>
                <mxCell id="145" value="&lt;h1 style=&quot;font-size: 12px&quot;&gt;&lt;span style=&quot;font-weight: normal&quot;&gt;Lorem ipsum dolor sit amet, consectetur adipisicing elit, sed do eiusmod tempor incididunt ut labore et dolore magna aliqua.&lt;/span&gt;&lt;br&gt;&lt;/h1&gt;" style="text;html=1;strokeColor=none;fillColor=none;spacing=5;spacingTop=-20;whiteSpace=wrap;overflow=hidden;rounded=0;fontSize=24;fontColor=#f0f0f0;align=left;horizontal=1;verticalAlign=top;" vertex="1" parent="1">
                    <mxGeometry x="772.5" y="840" width="185" height="60" as="geometry"/>
                </mxCell>
                <mxCell id="146" value="Post1" style="text;html=1;align=left;verticalAlign=middle;resizable=0;points=[];autosize=1;strokeColor=none;fontColor=#F0F0F0;fontSize=16;" vertex="1" parent="1">
                    <mxGeometry x="775" y="810" width="60" height="20" as="geometry"/>
                </mxCell>
                <mxCell id="147" value="Image2" style="rounded=1;whiteSpace=wrap;html=1;fontSize=24;fontColor=#f0f0f0;strokeWidth=2;fillColor=#1CA5B8;align=center;" vertex="1" parent="1">
                    <mxGeometry x="775" y="1040" width="180" height="100" as="geometry"/>
                </mxCell>
                <mxCell id="156" value="More" style="text;html=1;align=left;verticalAlign=middle;resizable=0;points=[];autosize=1;strokeColor=none;fontColor=#F0F0F0;fontSize=24;" vertex="1" parent="1">
                    <mxGeometry x="1030" y="650" width="70" height="30" as="geometry"/>
                </mxCell>
                <mxCell id="157" value="" style="html=1;shadow=0;dashed=0;shape=mxgraph.bootstrap.rrect;rSize=5;strokeColor=none;strokeWidth=1;fillColor=#343A40;fontColor=#ffffff;whiteSpace=wrap;align=center;verticalAlign=middle;spacingLeft=0;fontStyle=0;fontSize=16;spacing=5;" vertex="1" parent="1">
                    <mxGeometry x="1040" y="690" width="160" height="310" as="geometry"/>
                </mxCell>
                <mxCell id="158" value="" style="html=1;shadow=0;dashed=0;shape=mxgraph.bootstrap.rrect;rSize=5;strokeColor=none;strokeWidth=1;fillColor=#343A40;fontColor=#ffffff;whiteSpace=wrap;align=center;verticalAlign=middle;spacingLeft=0;fontStyle=0;fontSize=16;spacing=5;" vertex="1" parent="1">
                    <mxGeometry x="1040" y="1030" width="160" height="130" as="geometry"/>
                </mxCell>
                <mxCell id="148" value="" style="endArrow=none;html=1;shadow=0;fontSize=16;fontColor=#f0f0f0;endSize=6;strokeWidth=10;rounded=0;strokeColor=#197CA1;opacity=70;" edge="1" parent="1">
                    <mxGeometry width="50" height="50" relative="1" as="geometry">
                        <mxPoint x="1070" y="960" as="sourcePoint"/>
                        <mxPoint x="1070" y="840" as="targetPoint"/>
                        <Array as="points">
                            <mxPoint x="1130" y="900"/>
                        </Array>
                    </mxGeometry>
                </mxCell>
            </root>
        </mxGraphModel>
    </diagram>
</mxfile>